<svg xmlns="http://www.w3.org/2000/svg" viewBox="0 0 672 672" role="img" aria-label="MikeEstMXM">
  <defs>
    <radialGradient id="bg" cx="34%" cy="28%" r="88%">
      <stop offset="0%" stop-color="#5486ff"/>
      <stop offset="28%" stop-color="#6672df"/>
      <stop offset="55%" stop-color="#8a6cd8"/>
      <stop offset="76%" stop-color="#ff9aa3"/>
      <stop offset="90%" stop-color="#ffc86a"/>
      <stop offset="100%" stop-color="#ffe587"/>
    </radialGradient>
    <radialGradient id="blueGlow" cx="30%" cy="23%" r="56%">
      <stop offset="0%" stop-color="#92d5ff" stop-opacity="0.64"/>
      <stop offset="58%" stop-color="#6fa8ff" stop-opacity="0.16"/>
      <stop offset="100%" stop-color="#6fa8ff" stop-opacity="0"/>
    </radialGradient>
    <linearGradient id="sil" x1="18%" y1="10%" x2="82%" y2="90%">
      <stop offset="0%" stop-color="#101645"/>
      <stop offset="48%" stop-color="#141852"/>
      <stop offset="100%" stop-color="#26195f"/>
    </linearGradient>
    <clipPath id="c">
      <circle cx="336" cy="336" r="336"/>
    </clipPath>
  </defs>
  <g clip-path="url(#c)">
    <circle cx="336" cy="336" r="336" fill="url(#bg)"/>
    <circle cx="336" cy="336" r="336" fill="url(#blueGlow)"/>
    <path fill="#181537" fill-opacity="1.00" d=" M 415.00 139.00  C 418.37 124.98 408.39 110.73 394.00 111.00 C 395.97 113.49 397.83 116.02 399.00 119.00 C 375.70 114.71 348.46 120.39 326.00 121.00 C 303.54 121.61 286.59 134.04 266.00 138.00 C 245.41 141.97 229.69 149.51 218.00 167.00 C 218.36 160.33 217.12 154.02 215.00 148.00 C 213.16 157.54 210.90 168.56 204.92 176.92 C 198.93 185.28 188.28 185.63 181.00 192.00 C 184.84 192.57 189.91 190.81 193.00 193.00 C 187.84 195.05 184.52 200.82 180.25 204.25 C 175.97 207.68 173.21 213.59 170.78 217.78 C 168.34 221.97 167.30 235.50 173.00 229.00 C 169.93 260.27 179.79 294.31 191.08 321.92 C 202.36 349.53 226.52 364.67 231.00 394.00 C 219.88 393.12 200.52 391.45 191.08 398.08 C 181.64 404.71 184.13 423.35 179.98 432.98 C 175.82 442.60 167.69 461.06 180.00 465.00 C 170.44 471.97 160.05 479.40 150.23 486.23 C 140.41 493.06 130.91 500.37 121.25 507.25 C 111.58 514.12 102.56 522.04 93.25 529.25 C 83.93 536.45 70.61 545.33 81.25 554.75 C 91.88 564.18 96.07 572.35 106.25 580.75 C 116.43 589.16 122.99 596.32 133.30 603.70 C 143.62 611.07 152.46 617.01 163.31 623.70 C 174.15 630.38 184.75 634.88 196.31 640.70 C 207.86 646.51 219.59 650.24 232.32 654.68 C 245.06 659.12 258.54 662.53 272.33 665.67 C 286.12 668.81 302.11 669.69 316.93 671.07 C 331.75 672.46 350.05 672.01 365.00 671.00 C 379.95 669.99 395.21 668.33 409.33 665.33 C 423.45 662.33 435.43 659.16 449.00 655.00 C 433.92 602.14 391.09 558.83 347.00 528.00 C 353.80 531.70 361.26 535.14 367.75 539.25 C 374.24 543.35 380.81 547.50 386.92 552.08 C 393.02 556.66 399.19 560.94 404.75 566.25 C 410.32 571.56 415.50 576.51 420.75 582.25 C 426.00 587.99 430.22 593.70 434.75 600.25 C 439.28 606.79 443.75 612.03 447.08 619.92 C 450.41 627.82 454.67 632.76 456.68 642.32 C 458.68 651.88 466.40 650.49 475.00 646.00 C 472.35 636.04 467.09 625.79 462.30 616.70 C 457.51 607.60 452.51 598.52 446.77 590.23 C 441.03 581.94 431.92 574.19 439.75 565.75 C 447.58 557.30 448.51 547.38 454.08 538.08 C 459.64 528.77 464.29 516.30 453.23 511.77 C 442.17 507.24 434.84 502.71 424.69 498.31 C 414.55 493.90 405.69 489.60 396.25 484.75 C 386.80 479.91 378.91 475.03 369.75 470.25 C 360.59 465.48 351.87 460.12 343.23 454.77 C 334.59 449.42 325.56 445.52 318.00 439.00 C 325.95 443.29 334.72 446.91 342.77 451.23 C 350.82 455.55 359.73 458.02 367.77 462.23 C 375.81 466.43 385.65 471.92 389.70 461.70 C 393.74 451.47 399.23 448.73 403.23 439.23 C 407.23 429.73 415.00 427.03 423.93 423.93 C 432.85 420.82 442.80 417.42 451.78 414.78 C 460.75 412.13 468.94 409.54 475.75 402.75 C 482.57 395.96 483.32 384.47 476.77 376.23 C 470.22 367.99 472.77 359.64 477.07 350.07 C 481.38 340.51 465.80 334.88 459.00 334.00 C 468.99 327.91 481.35 321.91 469.30 309.70 C 457.26 297.49 478.32 294.09 483.68 284.68 C 489.04 275.26 471.68 266.81 466.08 259.92 C 460.49 253.03 444.86 247.59 442.98 237.02 C 441.10 226.46 439.05 211.66 430.75 203.25 C 422.46 194.83 423.41 182.68 414.00 175.00 C 427.15 172.76 445.45 162.06 440.00 146.00 C 435.64 150.96 429.02 154.32 422.00 154.00 C 429.66 147.37 430.31 133.83 423.00 127.00 C 423.22 132.24 420.21 137.88 415.00 139.00 Z"/>
  </g>
</svg>